<svg width="24" height="24" viewBox="0 0 24 24" fill="none" xmlns="http://www.w3.org/2000/svg">
<path d="M0 2C0 0.89543 0.895431 0 2 0H22C23.1046 0 24 0.895431 24 2V22C24 23.1046 23.1046 24 22 24H2C0.89543 24 0 23.1046 0 22V2Z" fill="#1877F2"/>
<path d="M24 12C24 5.37257 18.6274 -1.14441e-05 12 -1.14441e-05C5.37258 -1.14441e-05 0 5.37257 0 12C0 17.9895 4.38823 22.954 10.125 23.8542V15.4687H7.07813V12H10.125V9.35624C10.125 6.34874 11.9165 4.68749 14.6576 4.68749C15.9705 4.68749 17.3438 4.92186 17.3438 4.92186V7.87499H15.8306C14.3399 7.87499 13.875 8.8 13.875 9.74898V12H17.2031L16.6711 15.4687H13.875V23.8542C19.6118 22.954 24 17.9895 24 12Z" fill="#1877F2"/>
<path d="M16.6711 15.4688L17.2031 12H13.875V9.74899C13.875 8.80001 14.3399 7.875 15.8306 7.875H17.3438V4.92188C17.3438 4.92188 15.9705 4.6875 14.6576 4.6875C11.9165 4.6875 10.125 6.34875 10.125 9.35625V12H7.07812V15.4688H10.125V23.8542C10.7359 23.9501 11.3621 24 12 24C12.6379 24 13.2641 23.9501 13.875 23.8542V15.4688H16.6711Z" fill="white"/>
</svg>
