<svg width="16" height="16" viewBox="0 0 16 16" fill="none" xmlns="http://www.w3.org/2000/svg">
<g id="Rss">
<path id="Vector" d="M6.18188 9.81813C6.60105 10.235 6.93339 10.7309 7.15964 11.277C7.3859 11.8232 7.50158 12.4088 7.5 13C7.5 13.1326 7.44732 13.2598 7.35355 13.3536C7.25979 13.4473 7.13261 13.5 7 13.5C6.86739 13.5 6.74022 13.4473 6.64645 13.3536C6.55268 13.2598 6.5 13.1326 6.5 13C6.5 12.0717 6.13125 11.1815 5.47487 10.5251C4.8185 9.86876 3.92826 9.50001 3 9.50001C2.86739 9.50001 2.74022 9.44733 2.64645 9.35356C2.55268 9.25979 2.5 9.13262 2.5 9.00001C2.5 8.8674 2.55268 8.74022 2.64645 8.64645C2.74022 8.55269 2.86739 8.50001 3 8.50001C3.59118 8.49843 4.1768 8.61411 4.72296 8.84037C5.26913 9.06662 5.765 9.39896 6.18188 9.81813ZM3 5.50001C2.86739 5.50001 2.74022 5.55269 2.64645 5.64645C2.55268 5.74022 2.5 5.8674 2.5 6.00001C2.5 6.13262 2.55268 6.25979 2.64645 6.35356C2.74022 6.44733 2.86739 6.50001 3 6.50001C3.85359 6.50001 4.69883 6.66813 5.48744 6.99479C6.27606 7.32145 6.99261 7.80023 7.59619 8.40381C8.19978 9.00739 8.67856 9.72395 9.00522 10.5126C9.33187 11.3012 9.5 12.1464 9.5 13C9.5 13.1326 9.55268 13.2598 9.64645 13.3536C9.74021 13.4473 9.86739 13.5 10 13.5C10.1326 13.5 10.2598 13.4473 10.3536 13.3536C10.4473 13.2598 10.5 13.1326 10.5 13C10.5 11.0109 9.70982 9.10323 8.3033 7.69671C6.89678 6.29018 4.98912 5.50001 3 5.50001ZM10.4244 5.57563C9.45168 4.59754 8.29465 3.82209 7.02026 3.29416C5.74586 2.76623 4.37941 2.4963 3 2.50001C2.86739 2.50001 2.74022 2.55269 2.64645 2.64645C2.55268 2.74022 2.5 2.8674 2.5 3.00001C2.5 3.13262 2.55268 3.25979 2.64645 3.35356C2.74022 3.44733 2.86739 3.50001 3 3.50001C4.24806 3.49659 5.48441 3.74075 6.63747 4.21837C7.79053 4.69599 8.83741 5.39757 9.7175 6.28251C10.6024 7.1626 11.304 8.20947 11.7816 9.36253C12.2593 10.5156 12.5034 11.7519 12.5 13C12.5 13.1326 12.5527 13.2598 12.6464 13.3536C12.7402 13.4473 12.8674 13.5 13 13.5C13.1326 13.5 13.2598 13.4473 13.3536 13.3536C13.4473 13.2598 13.5 13.1326 13.5 13C13.5037 11.6206 13.2338 10.2541 12.7058 8.97975C12.1779 7.70536 11.4025 6.54833 10.4244 5.57563ZM3.25 12C3.10166 12 2.95666 12.044 2.83332 12.1264C2.70999 12.2088 2.61386 12.3259 2.55709 12.463C2.50032 12.6 2.48547 12.7508 2.51441 12.8963C2.54335 13.0418 2.61478 13.1754 2.71967 13.2803C2.82456 13.3852 2.9582 13.4567 3.10368 13.4856C3.24917 13.5145 3.39997 13.4997 3.53701 13.4429C3.67406 13.3862 3.79119 13.29 3.8736 13.1667C3.95601 13.0433 4 12.8983 4 12.75C4 12.5511 3.92098 12.3603 3.78033 12.2197C3.63968 12.079 3.44891 12 3.25 12Z" fill="white"/>
</g>
</svg>
